<?xml version="1.0" encoding="utf-8"?>
<!-- Generator: Adobe Illustrator 22.0.0, SVG Export Plug-In . SVG Version: 6.00 Build 0)  -->
<svg version="1.1" id="图层_1" xmlns="http://www.w3.org/2000/svg" xmlns:xlink="http://www.w3.org/1999/xlink" x="0px" y="0px"
	 viewBox="0 0 71.8 72" style="enable-background:new 0 0 71.8 72;" xml:space="preserve">
<style type="text/css">
	.st0{fill:#FFFFFF;}
</style>
<g>
	<path class="st0" d="M0,36c0-10,3.5-18.5,10.6-25.5C17.6,3.5,26.1,0,35.9,0c9.9,0,18.3,3.5,25.3,10.5c7,7,10.5,15.5,10.5,25.5
		c0,10-3.5,18.5-10.6,25.5c-7,7-15.5,10.5-25.3,10.5c-9.9,0-18.3-3.5-25.4-10.6C3.5,54.4,0,45.9,0,36z M4.1,36
		c0,8.8,3.1,16.3,9.3,22.5c6.2,6.2,13.7,9.3,22.5,9.3c8.8,0,16.3-3.1,22.5-9.3c6.2-6.2,9.3-13.7,9.3-22.5c0-8.8-3.1-16.3-9.3-22.5
		c-6.2-6.2-13.7-9.3-22.5-9.3c-8.7,0-16.2,3.1-22.4,9.3C7.2,19.7,4.1,27.2,4.1,36z M50.4,57.7c-3.7,2.2-8,3.3-12.9,3.3
		c-6.7,0-12.4-2.3-16.9-6.8c-4.5-4.5-6.7-10.2-6.7-17c0-7.9,2.3-14.3,7-19c4.6-4.7,10.7-7.1,18-7.1c4.2,0,8,0.9,11.3,2.6v6.9
		c-3-2.3-7.1-3.5-12.3-3.5c-5.1,0-9.3,1.7-12.5,5.2c-3.3,3.4-4.9,8.1-4.9,14c0,5.7,1.7,10.3,5,13.7c3.3,3.4,7.6,5.1,12.8,5.1
		c4.6,0,8.7-1.2,12-3.7V57.7z"/>
</g>
</svg>
